<svg xmlns="http://www.w3.org/2000/svg" width="300" height="300" version="1"><path fill="#fff" d="M227 162H78v-43h149v43z"/><path fill="#ecd679" d="M123 140c0 14-6 25-13 25s-12-11-12-25c0-13 5-24 12-24s13 11 13 24zM203 140c0 14-6 25-13 25s-12-11-12-25c0-13 5-24 12-24s13 11 13 24z"/><path d="M116 68L65 26c-10-8-20-2-18 10l12 76a108 108 0 1 0 186 6l13-82c1-12-9-18-18-10l-53 43a108 108 0 0 0-71-1zm6 87c-16 5-32 0-43-12 4-8 11-16 20-19 17-6 35 3 40 20l2 5-19 6zm56 0l-19-7 2-5a32 32 0 0 1 60 2 40 40 0 0 1-43 10z"/><path fill="#fff" d="M89 220c-21 1-48 5-65 12 0 0 41-6 58-7h41l3-1c2-1 4-4-1-6l-4-1c-15-4-63-14-95-10a844 844 0 0 1 58 8c-20-1-43 0-59 4h58l6 1zM217 220c21 1 48 5 65 12l-58-7h-41l-3-1c-2-1-4-4 0-6l5-1c14-4 63-14 95-10 0 0-42 4-57 7l-1 1c20-1 43 0 59 4h-59l-5 1zM127 245c-7 6-29 18-29 18 21-3 48-27 50-30 2-4-2-6-4-5l-17 17zM174 245l29 18c-21-3-48-27-50-30-2-4 3-6 4-5l17 17z"/><path fill="#ffe3f9" d="M171 216l-16 18c-2 3-8 3-10 0l-16-18c-3-3 0-6 5-6h32c5 0 8 3 5 6z"/><path fill="#fff" d="M74 98c8 11 19 16 27 13 9-4 10-22 1-38a40 40 0 0 0-8-10L54 28l11 52 4 11 5 7zM228 101c-9 10-20 16-27 12-10-4-10-21-1-37a40 40 0 0 1 8-10l40-35-11 52-4 10-5 8z"/></svg>