<svg xmlns="http://www.w3.org/2000/svg" width="300" height="200" version="1"><path fill="none" stroke="#000" stroke-dasharray="0.001,40.17089" stroke-dashoffset="-20" stroke-linecap="round" stroke-linejoin="round" stroke-width="14" d="M150 173C89 163 39 123 45 86"/><path fill="none" stroke="#e9e9e9" stroke-dasharray="0.001,42.98618" stroke-dashoffset="-21" stroke-linecap="round" stroke-linejoin="round" stroke-width="14" d="M135 170c-56-13-99-55-92-88"/><path fill="#fff" stroke="#bfbfbf" stroke-linecap="square" stroke-width="4" d="M190 86c-5 0-10-5-10-10 0-6 5-10 10-10 6 0 11 4 11 10 0 5-5 10-11 10z"/><path fill="#fff" stroke="#bfbfbf" stroke-linecap="square" stroke-width="4" d="M203 93c-6 0-11-5-11-10 0-6 5-11 11-11 5 0 10 5 10 11 0 5-5 10-10 10z"/><path fill="#dedede" stroke="#bfbfbf" stroke-linecap="round" stroke-linejoin="round" stroke-width="5" d="M85 29c-30-8-59 10-67 40-8 29 10 59 39 66 6 2 15 2 15 2l212 1S167 71 99 35c-4-3-9-4-14-6z"/><path fill="#4d4d4d" d="M208 139c-3 2-6 5-7 8 0 0 13-9 20-12l13-5h3v-2c0-2-1-3-2-3-3 0-29 4-39 15l14-5c-5 2-9 5-12 9l10-5zM210 119c-4 0-7-3-7-7s3-7 7-7 7 3 7 7-3 7-7 7z"/><path fill="#e9e9e9" d="M208 112c-2 0-3-1-3-2 0-2 1-3 3-3 1 0 3 1 3 3l-3 2z"/></svg>